# xmcd
#
# Track frame offsets: 
#        150
#        13182
#        27848
#        56609
#        72020
#        101563
#        117302
#        135368
#        155761
#        168480
#        190239
#
# Disc length: 2673 seconds
#
# Revision: 0
# Processed by: cddbd v1.5.2PL0 Copyright (c) Steve Scherf et al.
# Submitted via: ExactAudioCopyFreeDBPlugin 1.0
#
DISCID=900a6f0b
DTITLE=Jerron Paxton - Recorded Music for Your Entertainment
DYEAR=1900
DGENRE=
TTITLE0=Massa Am A Stringy Man
TTITLE1=Citico
TTITLE2=Motherless Child Blues
TTITLE3=The Devil's Dream
TTITLE4=Pretty Saro
TTITLE5=The Glendy Burk
TTITLE6=Lost My Appetite For Chicken
TTITLE7=Soldier's Joy
TTITLE8=Lutin Reel
TTITLE9=Poor Benny
TTITLE10=Trying To Make One Hundred
EXTD=
EXTT0=
EXTT1=
EXTT2=
EXTT3=
EXTT4=
EXTT5=
EXTT6=
EXTT7=
EXTT8=
EXTT9=
EXTT10=
PLAYORDER=
